<?xml version="1.0" encoding="utf-8"?>
<!-- Generator: Adobe Illustrator 15.0.2, SVG Export Plug-In . SVG Version: 6.00 Build 0)  -->
<!DOCTYPE svg PUBLIC "-//W3C//DTD SVG 1.1//EN" "http://www.w3.org/Graphics/SVG/1.1/DTD/svg11.dtd">
<svg version="1.1" id="Layer_1" xmlns="http://www.w3.org/2000/svg" xmlns:xlink="http://www.w3.org/1999/xlink" x="0px" y="0px"
	 width="80px" height="80px" viewBox="8 8 80 80" enable-background="new 8 8 80 80" xml:space="preserve">
<rect id="BOUNDING_BOX_1_" x="8" y="8" fill="none" width="80" height="80"/>
<path id="SHADOW_1_" opacity="0.4" enable-background="new    " d="M88.023,49c0,29.633-10.364,40-40,40c-29.635,0-40-10.367-40-40
	c0-29.634,10.366-40,40-40C77.659,9,88.023,19.365,88.023,49z"/>
<path fill="#FFA033" d="M88,47.978c0-29.634-10.363-40-40-40c-29.635,0-40,10.365-40,40c0,29.633,10.365,40,40,40
	C77.637,87.979,88,77.611,88,47.978z"/>
<path fill="#FF8800" d="M48,87.979c29.637,0,40-10.367,40-40c0-3.294-0.137-6.338-0.404-9.168
	C52.921,39.46,29.978,42.795,8.852,60.852C11.853,80.682,23.148,87.979,48,87.979z"/>
<linearGradient id="DARK_BEVEL_1_" gradientUnits="userSpaceOnUse" x1="250" y1="505.4395" x2="250" y2="586.1362" gradientTransform="matrix(1 0 0 1 -202 -498)">
	<stop  offset="0.3614" style="stop-color:#000000;stop-opacity:0"/>
	<stop  offset="1" style="stop-color:#000000"/>
</linearGradient>
<path id="DARK_BEVEL_2_" opacity="0.23" fill="url(#DARK_BEVEL_1_)" enable-background="new    " d="M88,47.978
	c0,29.633-10.363,40-40,40c-29.635,0-40-10.367-40-40c0-29.634,10.365-40,40-40C77.637,7.979,88,18.344,88,47.978z"/>
<linearGradient id="LIGHT_BEVEL_2_" gradientUnits="userSpaceOnUse" x1="250" y1="501.5234" x2="250" y2="576.5085" gradientTransform="matrix(1 0 0 1 -202 -498)">
	<stop  offset="0" style="stop-color:#FFFFFF"/>
	<stop  offset="1" style="stop-color:#FFFFFF;stop-opacity:0.18"/>
</linearGradient>
<path id="LIGHT_BEVEL_1_" opacity="0.4" fill="url(#LIGHT_BEVEL_2_)" enable-background="new    " d="M88,47.978
	c0,29.633-10.363,40-40,40c-29.635,0-40-10.367-40-40c0-29.634,10.365-40,40-40C77.637,7.979,88,18.344,88,47.978z"/>
<linearGradient id="HIGHLIGHTS_2_" gradientUnits="userSpaceOnUse" x1="250" y1="506.2314" x2="250" y2="585.4766" gradientTransform="matrix(1 0 0 1 -202 -498)">
	<stop  offset="0" style="stop-color:#FFFFFF"/>
	<stop  offset="1" style="stop-color:#FFFFFF;stop-opacity:0"/>
</linearGradient>
<path id="HIGHLIGHTS_1_" opacity="0.25" fill="url(#HIGHLIGHTS_2_)" enable-background="new    " d="M48,7.979
	c-29.635,0-40,10.365-40,40c0,29.632,10.365,40,40,40c29.637,0,40-10.367,40-40C88,18.344,77.637,7.979,48,7.979z M48,87.002
	c-29.159,0-39-9.848-39-39.024C9,18.803,18.841,8.956,48,8.956c29.158,0,39,9.847,39,39.022C87,77.154,77.158,87.002,48,87.002z"/>
<g>
	
		<image overflow="visible" opacity="0.75" enable-background="new    " width="72" height="44" xlink:href="FBCDFE.png"  transform="matrix(1 0 0 1 12 28)">
	</image>
	<g>
		
			<linearGradient id="SVGID_1_" gradientUnits="userSpaceOnUse" x1="255.5117" y1="559.9346" x2="243.7668" y2="527.6656" gradientTransform="matrix(1 0 0 1 -202 -498)">
			<stop  offset="0" style="stop-color:#FFBB54"/>
			<stop  offset="0.249" style="stop-color:#FFC875"/>
			<stop  offset="0.5733" style="stop-color:#FFD69B"/>
			<stop  offset="0.8352" style="stop-color:#FFDFB2"/>
			<stop  offset="1" style="stop-color:#FFE2BA"/>
		</linearGradient>
		<path fill="url(#SVGID_1_)" d="M31.965,52.232l13.26-5.057L48.384,63.8l6.646-2.493l1.908-18.57l16.388-6.221
			c1.679-0.648,2.235-2.074,1.28-3.176c-0.984-1.102-3.125-1.458-4.803-0.843l-16.518,6.287l-21.091-4.57l-4.705,0.648l14.114,8.361
			L28.346,48.28l-6.383-1.815l-5.034,1.912l7.041,4.213l0.724,6.61l4.442-1.718L31.965,52.232L31.965,52.232L31.965,52.232
			L31.965,52.232z"/>
	</g>
</g>
</svg>
